# xmcd
#
# Track frame offsets: 
#        150
#        11393
#        30554
#        42029
#        53704
#        66637
#        78262
#        97372
#        109580
#        123017
#        137688
#        150689
#        167081
#        182314
#        196140
#
# Disc length: 2811 seconds
#
# Revision: 0
# Processed by: cddbd v1.5.2PL0 Copyright (c) Steve Scherf et al.
# Submitted via: ExactAudioCopy v1.1
#
DISCID=b80af90f
DTITLE=Various Artist - Country Music of Your Life: Talking In Your S
DTITLE=leep [CD1]
DYEAR=2015
DGENRE=Country
TTITLE0=Sonny James - Young Love
TTITLE1=Ray Charles - I Can’t Stop Loving You
TTITLE2=Loretta Lynn - Love Is the Foundation
TTITLE3=Patsy Cline - Sweet Dreams (Of You)
TTITLE4=Willie Nelson - Crazy
TTITLE5=George Jones - She Thinks I Still Care
TTITLE6=Kenny Rogers - She Believes in Me
TTITLE7=Hank Williams and His Drifting Cowboys - Your Cheatin’ Heart
TTITLE8=Bobby Helms - My Special Angel
TTITLE9=Ray Charles - You Don’t Know Me
TTITLE10=Conway Twitty - Happy Birthday Darlin’
TTITLE11=Olivia Newton-John - I Honestly Love You
TTITLE12=B.J. Thomas - (Hey Won’t You Play) Another Somebody Done Some
TTITLE12=body Wrong Song
TTITLE13=Anne Murray - Danny’s Song
TTITLE14=Cristy Lane - One Day at a Time
EXTD=
EXTT0=
EXTT1=
EXTT2=
EXTT3=
EXTT4=
EXTT5=
EXTT6=
EXTT7=
EXTT8=
EXTT9=
EXTT10=
EXTT11=
EXTT12=
EXTT13=
EXTT14=
PLAYORDER=
